<?xml version="1.0" ?><svg id="Layer_3" style="enable-background:new 0 0 64 64;" version="1.1" viewBox="0 0 64 64" xml:space="preserve" xmlns="http://www.w3.org/2000/svg" xmlns:xlink="http://www.w3.org/1999/xlink"><g><g><polygon points="44,62 2,62 2,2 44,2 44,31   " style="fill:#00395E;"/></g><g><polygon points="40,2 2,2 2,62 40,62 40,31   " style="fill:#00558D;"/></g><g><rect height="16" style="fill:#AADDF3;" width="30" x="8" y="8"/></g><g><rect height="16" style="fill:#BBE4F5;" width="26" x="8" y="8"/></g><g><rect height="6" style="fill:#F7931E;" width="6" x="32" y="30"/></g><g><rect height="6" style="fill:#FBB03B;" width="3" x="32" y="30"/></g><g><rect height="6" style="fill:#F7931E;" width="6" x="8" y="30"/></g><g><rect height="6" style="fill:#FBB03B;" width="3" x="8" y="30"/></g><g><rect height="6" style="fill:#B3B3B3;" width="6" x="8" y="40"/></g><g><rect height="6" style="fill:#CCCCCC;" width="3" x="8" y="40"/></g><g><rect height="6" style="fill:#B3B3B3;" width="6" x="8" y="50"/></g><g><rect height="6" style="fill:#CCCCCC;" width="3" x="8" y="50"/></g><g><rect height="6" style="fill:#B3B3B3;" width="6" x="20" y="50"/></g><g><rect height="6" style="fill:#CCCCCC;" width="3" x="20" y="50"/></g><g><rect height="6" style="fill:#B3B3B3;" width="6" x="20" y="40"/></g><g><rect height="6" style="fill:#CCCCCC;" width="3" x="20" y="40"/></g><g><path d="M40.546,61.046C34.395,58.816,30,52.921,30,46c0-8.837,7.163-16,16-16s16,7.163,16,16    s-7.163,16-16,16C44.085,62,42.248,61.663,40.546,61.046" style="fill:#007E37;"/></g><g><path d="M44,30.138C36.11,31.124,30,37.842,30,46c0,6.921,4.395,12.816,10.546,15.046    c1.1,0.399,2.26,0.666,3.456,0.815C51.892,60.874,58,54.157,58,46C58,37.842,51.89,31.124,44,30.138z" style="fill:#00BD53;"/></g><g><path d="M35,63H2c-0.553,0-1-0.448-1-1V2c0-0.552,0.447-1,1-1h42c0.553,0,1,0.448,1,1v28h-2V3H3v58h32V63z"/></g><g><path d="M38,25H8c-0.553,0-1-0.448-1-1V8c0-0.552,0.447-1,1-1h30c0.553,0,1,0.448,1,1v16C39,24.552,38.553,25,38,25z M9,23h28V9H9    V23z"/></g><g><path d="M14,37H8c-0.553,0-1-0.448-1-1v-6c0-0.552,0.447-1,1-1h6c0.553,0,1,0.448,1,1v6C15,36.552,14.553,37,14,37z M9,35h4v-4H9    V35z"/></g><g><rect height="6" style="fill:#F7931E;" width="6" x="20" y="30"/></g><g><rect height="6" style="fill:#FBB03B;" width="3" x="20" y="30"/></g><g><path d="M26,37h-6c-0.553,0-1-0.448-1-1v-6c0-0.552,0.447-1,1-1h6c0.553,0,1,0.448,1,1v6C27,36.552,26.553,37,26,37z M21,35h4v-4    h-4V35z"/></g><g><path d="M14,47H8c-0.553,0-1-0.448-1-1v-6c0-0.552,0.447-1,1-1h6c0.553,0,1,0.448,1,1v6C15,46.552,14.553,47,14,47z M9,45h4v-4H9    V45z"/></g><g><path d="M26,47h-6c-0.553,0-1-0.448-1-1v-6c0-0.552,0.447-1,1-1h6c0.553,0,1,0.448,1,1v6C27,46.552,26.553,47,26,47z M21,45h4v-4    h-4V45z"/></g><g><path d="M33,44"/></g><g><path d="M33,44"/></g><g><path d="M14,57H8c-0.553,0-1-0.448-1-1v-6c0-0.552,0.447-1,1-1h6c0.553,0,1,0.448,1,1v6C15,56.552,14.553,57,14,57z M9,55h4v-4H9    V55z"/></g><g><path d="M26,57h-6c-0.553,0-1-0.448-1-1v-6c0-0.552,0.447-1,1-1h6c0.553,0,1,0.448,1,1v6C27,56.552,26.553,57,26,57z M21,55h4v-4    h-4V55z"/></g><g><path d="M34,37h-2c-0.553,0-1-0.448-1-1v-6c0-0.552,0.447-1,1-1h6c0.553,0,1,0.448,1,1v2h-2v-1h-4v4h1V37z"/></g><g><path d="M20,21h-4c-0.553,0-1-0.448-1-1v-8c0-0.552,0.447-1,1-1h4c0.553,0,1,0.448,1,1v8C21,20.552,20.553,21,20,21z M17,19h2v-6    h-2V19z"/></g><g><path d="M27,21h-4c-0.553,0-1-0.448-1-1v-8c0-0.552,0.447-1,1-1h4c0.553,0,1,0.448,1,1v8C28,20.552,27.553,21,27,21z M24,19h2v-6    h-2V19z"/></g><g><path d="M34,21h-4c-0.553,0-1-0.448-1-1v-8c0-0.552,0.447-1,1-1h4c0.553,0,1,0.448,1,1v8C35,20.552,34.553,21,34,21z M31,19h2v-6    h-2V19z"/></g><g><rect height="2" width="2" x="11" y="19"/></g><g><path d="M61,51"/></g><g><path d="M61,51"/></g><g><path d="M61,51"/></g><g><path d="M61,51"/></g><g><path d="M61,51"/></g><g><path d="M61,51"/></g><g><path d="M61,51"/></g><g><path d="M61,51"/></g><g><path d="M61,51"/></g><g><path d="M61,51"/></g><g><path d="M61,51"/></g><g><path d="M61,51"/></g><g><path d="M61,51"/></g><g><path d="M61,51"/></g><g><path d="M61,51"/></g><g><path d="M61,51"/></g><g><path d="M61,51"/></g><g><path d="M61,51"/></g><g><path d="M61,51"/></g><g><path d="M61,51"/></g><g><rect height="22" width="2" x="45" y="35"/></g><g><rect height="2" width="22" x="35" y="45"/></g><g><rect height="2" width="6" x="37" y="39"/></g><g><rect height="2" width="6" x="37" y="51"/></g><g><rect height="2" width="6" x="49" y="39"/></g><g><path d="M46,63c-1.99,0-3.94-0.341-5.795-1.014C33.503,59.556,29,53.132,29,46c0-9.374,7.626-17,17-17s17,7.626,17,17    S55.374,63,46,63z M40.887,60.106C42.522,60.699,44.242,61,46,61c8.271,0,15-6.729,15-15s-6.729-15-15-15s-15,6.729-15,15    C31,52.293,34.974,57.962,40.887,60.106z"/></g><g><rect height="5.657" transform="matrix(0.7071 -0.7071 0.7071 0.7071 -21.5391 52)" width="2" x="51" y="49.172"/></g><g><rect height="2" transform="matrix(0.7071 -0.7071 0.7071 0.7071 -21.5391 52)" width="5.657" x="49.172" y="51"/></g><g><rect height="6" width="2" x="51" y="37"/></g><g><rect height="2" width="2" x="39" y="48"/></g><g><rect height="2" width="2" x="39" y="54"/></g></g></svg>